# xmcd
#
# Track frame offsets: 
#        150
#        18600
#        32678
#        45479
#        60124
#        71915
#        86003
#        111526
#        130809
#        154834
#        171227
#        189028
#        205428
#        230261
#        248587
#
# Disc length: 3535 seconds
#
# Revision: 0
# Processed by: cddbd v1.5.2PL0 Copyright (c) Steve Scherf et al.
# Submitted via: ExactAudioCopy v0.95b4
#
DISCID=c50dcd0f
DTITLE=Eric Clapton - Double Trouble [CD1]
DYEAR=1995
DGENRE=Blues
TTITLE0=Motherless child
TTITLE1=Malted milk
TTITLE2=From for until late
TTITLE3=How long blues
TTITLE4=Kidman blues
TTITLE5=I'm gonna cut your head
TTITLE6=Forty-four blues
TTITLE7=Blues all day long
TTITLE8=Standing around crying
TTITLE9=Hoochie coochie man
TTITLE10=It hurts me too
TTITLE11=Blues before sunrise
TTITLE12=Third degree
TTITLE13=Reconsider baby
TTITLE14=Sinner's prayer
EXTD=
EXTT0=
EXTT1=
EXTT2=
EXTT3=
EXTT4=
EXTT5=
EXTT6=
EXTT7=
EXTT8=
EXTT9=
EXTT10=
EXTT11=
EXTT12=
EXTT13=
EXTT14=
PLAYORDER=
